<svg width="312" height="50" viewBox="0 0 312 50" fill="none" xmlns="http://www.w3.org/2000/svg">
<g clip-path="url(#clip0_819_111)">
<path d="M11.1184 49.0807H0V0.901367H11.1184V20.1162H26.8499V0.901367H37.9683V49.0807H26.8499V29.7473H11.1184V49.0807Z" fill="black"/>
<path d="M58.0008 18.1709C62.0793 18.1709 65.4491 19.5171 67.9359 21.919V19.0486H78.3996V49.1044H68.05V45.7062H67.9299C65.6834 48.1673 62.1334 49.9821 57.9948 49.9821C49.1229 49.9821 42.918 42.8951 42.918 34.1061C42.918 25.3171 49.1289 18.1709 57.9948 18.1709H58.0008ZM61.1303 41.1338C65.2088 41.1338 68.1641 38.2041 68.1641 34.1002C68.1641 29.9963 65.0286 27.0133 61.1303 27.0133C57.2259 27.0133 54.0364 29.9429 54.0364 34.1002C54.0364 38.2575 56.8775 41.1338 61.1303 41.1338Z" fill="black"/>
<path d="M85.4336 19.072H95.9093V23.4013H96.0294C96.0294 23.4013 99.3451 18.1943 105.322 18.1943C109.226 18.1943 111.947 20.0684 111.947 20.0684L107.568 28.8514C107.568 28.8514 105.616 27.2146 102.126 27.2146C96.6841 27.2146 95.9153 32.5402 95.9153 33.3052V49.11H85.4396V19.078L85.4336 19.072Z" fill="black"/>
<path d="M120.332 12.8932C123.786 12.8932 126.585 10.1292 126.585 6.71954C126.585 3.30993 123.786 0.545898 120.332 0.545898C116.879 0.545898 114.079 3.30993 114.079 6.71954C114.079 10.1292 116.879 12.8932 120.332 12.8932Z" fill="black"/>
<path d="M125.456 19.0723H114.938V49.1043H125.456V19.0723Z" fill="black"/>
<path d="M155.886 20.5193L152.462 27.3157C152.462 27.3157 148.918 25.4416 145.728 25.4416C143.428 25.4416 142.479 25.8508 142.479 27.2563C142.479 28.8398 144.605 29.3083 147.2 30.1267C151.212 31.3543 156.408 33.5842 156.408 39.7341C156.408 48.5824 148.263 49.9879 142.058 49.9879C134.736 49.9879 130.369 45.9433 130.369 45.9433L134.622 38.8564C134.622 38.8564 138.755 42.3139 142.118 42.3139C143.596 42.3139 145.368 42.136 145.368 40.1433C145.368 37.9727 142.064 37.8008 138.634 36.0453C135.565 34.4619 132.496 32.3566 132.496 27.8435C132.496 21.6935 137.751 18.1768 145.722 18.1768C151.567 18.1768 155.88 20.5193 155.88 20.5193H155.886Z" fill="black"/>
<path d="M171.672 23.2535C168.843 19.7485 166.776 16.3622 166.776 12.5608C166.776 5.08243 172.206 0 182.292 0C192.383 0 196.75 6.54134 196.75 12.5608C196.75 19.8079 187.133 24.4218 187.133 24.4218L193.62 31.0817C193.62 31.0817 195.747 30.1447 200.762 25.0089L207.604 31.6688C207.604 31.6688 204.3 35.4051 200.702 38.2695L211.202 49.0748H197.218L192.383 44.111C188.136 47.0881 184.238 49.9526 176.747 49.9526C169.257 49.9526 159.814 47.0881 159.814 36.4014C159.814 30.3819 165.953 26.2365 171.672 23.2594V23.2535ZM177.456 29.267C177.456 29.267 172.38 31.0758 172.38 35.5177C172.38 38.3229 175.27 39.5505 177.865 39.5505C181.877 39.5505 185.181 36.8046 185.181 36.8046L177.45 29.267H177.456ZM178.045 12.5608C178.045 15.3659 181.583 18.4616 181.583 18.4616C184.063 17.1154 187.013 15.1346 187.013 12.5608C187.013 9.98695 185.89 7.76895 182.292 7.76895C179.282 7.76895 178.045 9.98695 178.045 12.5608Z" fill="black"/>
<path d="M250.744 36.1819L255.471 45.5343C255.471 45.5343 250.035 49.9762 239.463 49.9762C225.702 49.9762 213.058 38.8684 213.058 25.08C213.058 11.2857 225.642 0.00585938 239.463 0.00585938C250.035 0.00585938 255.471 4.4478 255.471 4.4478L250.744 13.8002C250.744 13.8002 246.845 10.8172 241.175 10.8172C230.009 10.8172 225.107 18.5327 225.107 24.9614C225.107 31.39 230.009 39.1649 241.175 39.1649C246.845 39.1649 250.744 36.1819 250.744 36.1819Z" fill="black"/>
<path d="M275.659 18.165C285.666 18.165 293.679 24.7301 293.679 34.1121C293.679 43.4942 286.081 49.9999 275.659 49.9999C265.238 49.9999 257.465 43.3756 257.465 34.1121C257.465 24.8487 265.472 18.165 275.659 18.165ZM275.605 41.1457C279.666 41.1457 282.609 38.216 282.609 34.1121C282.609 30.0082 279.491 27.0193 275.605 27.0193C271.719 27.0193 268.541 29.9489 268.541 34.1121C268.541 38.2753 271.37 41.1457 275.605 41.1457Z" fill="black"/>
<path d="M312 43.2989C312 46.9995 308.978 50.0003 305.188 50.0003C301.398 50.0003 298.437 47.0054 298.437 43.2989C298.437 39.5982 301.458 36.5381 305.188 36.5381C308.918 36.5381 312 39.533 312 43.2989Z" fill="black"/>
</g>
<defs>
<clipPath id="clip0_819_111">
<rect width="312" height="50" fill="white"/>
</clipPath>
</defs>
</svg>
