<svg width="26" height="26" viewBox="0 0 26 26" fill="none" xmlns="http://www.w3.org/2000/svg">
<path d="M25.9998 13.0009C25.9934 16.177 24.8277 19.2416 22.7218 21.6191C20.6158 23.9966 17.7144 25.5236 14.5623 25.9134C14.492 25.9203 14.4209 25.9126 14.3537 25.8908C14.2865 25.8689 14.2245 25.8334 14.1717 25.7864C14.1189 25.7395 14.0763 25.6821 14.0468 25.6179C14.0172 25.5537 14.0012 25.4841 13.9998 25.4134V16.0009H16.9998C17.1365 16.0012 17.2719 15.9734 17.3975 15.9193C17.5231 15.8652 17.6362 15.7859 17.73 15.6863C17.8237 15.5867 17.896 15.469 17.9424 15.3403C17.9888 15.2117 18.0083 15.0749 17.9998 14.9384C17.9777 14.6798 17.8583 14.4393 17.6657 14.2653C17.4732 14.0913 17.2218 13.9968 16.9623 14.0009H13.9998V11.0009C13.9998 10.4705 14.2105 9.96178 14.5856 9.58671C14.9607 9.21164 15.4694 9.00093 15.9998 9.00093H17.9998C18.1365 9.00119 18.2719 8.97341 18.3975 8.91929C18.5231 8.86517 18.6362 8.78587 18.73 8.68629C18.8237 8.58671 18.896 8.46896 18.9424 8.34033C18.9888 8.2117 19.0083 8.07491 18.9998 7.93843C18.9777 7.67985 18.8583 7.43928 18.6657 7.26529C18.4732 7.09129 18.2218 6.99682 17.9623 7.00093H15.9998C14.9389 7.00093 13.9215 7.42235 13.1714 8.1725C12.4212 8.92264 11.9998 9.94006 11.9998 11.0009V14.0009H8.9998C8.86305 14.0007 8.7277 14.0284 8.60211 14.0826C8.47652 14.1367 8.36337 14.216 8.26964 14.3156C8.17592 14.4151 8.10362 14.5329 8.0572 14.6615C8.01079 14.7902 7.99125 14.9269 7.9998 15.0634C8.02192 15.322 8.14131 15.5626 8.33386 15.7366C8.52642 15.9106 8.77781 16.005 9.0373 16.0009H11.9998V25.4134C12.0001 25.4835 11.9858 25.5529 11.9576 25.6171C11.9294 25.6812 11.888 25.7388 11.8361 25.7859C11.7843 25.833 11.7231 25.8688 11.6565 25.8907C11.59 25.9127 11.5195 25.9204 11.4498 25.9134C4.8498 25.1134 -0.250201 19.3759 0.0122991 12.5134C0.159653 9.1244 1.62586 5.92721 4.09797 3.60431C6.57007 1.2814 9.85222 0.0167908 13.2439 0.0804144C16.6355 0.144038 19.8679 1.53085 22.2511 3.94484C24.6344 6.35883 25.9797 9.60876 25.9998 13.0009Z" fill="black"/>
</svg>
