<svg width="25" height="25" viewBox="0 0 25 25" fill="none" xmlns="http://www.w3.org/2000/svg">
<path fill-rule="evenodd" clip-rule="evenodd" d="M22.2222 25H2.77778C1.24375 25 0 23.7562 0 22.2222V2.77778C0 1.24375 1.24375 0 2.77778 0H22.2222C23.7562 0 25 1.24375 25 2.77778V22.2222C25 23.7562 23.7562 25 22.2222 25Z" fill="black"/>
<path d="M19.6231 19.4446H15.1529L5.43697 5.55566H9.9071L19.6231 19.4446ZM15.6856 18.2668H17.4654L9.37447 6.73344H7.5946L15.6856 18.2668Z" fill="white"/>
<path d="M6.85138 19.4445L11.8535 13.6501L11.1993 12.7827L5.43263 19.4445H6.85138Z" fill="white"/>
<path d="M12.8125 10.9175L13.441 11.8126L18.8444 5.55566H17.4556L12.8125 10.9175Z" fill="white"/>
</svg>
