<svg width="20" height="20" viewBox="0 0 20 20" fill="none" xmlns="http://www.w3.org/2000/svg">
<path d="M10.6404 0.0449219C11.7179 0.0477954 12.2649 0.0535423 12.7371 0.0669519L12.9229 0.0736567C13.1374 0.0813193 13.3491 0.0908976 13.6049 0.102392C14.624 0.150283 15.3194 0.311198 15.9295 0.547782C16.5617 0.79107 17.0942 1.12056 17.6268 1.65216C18.1138 2.13097 18.4907 2.71016 18.7312 3.34943C18.9677 3.95957 19.1287 4.65495 19.1765 5.67504C19.188 5.92982 19.1976 6.1415 19.2053 6.35701L19.211 6.54283C19.2254 7.01408 19.2311 7.561 19.2331 8.63856L19.234 9.3531V10.6079C19.2364 11.3065 19.229 12.0051 19.212 12.7036L19.2062 12.8894C19.1986 13.1049 19.189 13.3166 19.1775 13.5714C19.1296 14.5915 18.9668 15.2859 18.7312 15.897C18.4914 16.5366 18.1144 17.1159 17.6268 17.5942C17.1478 18.0811 16.5687 18.458 15.9295 18.6986C15.3194 18.9352 14.624 19.0961 13.6049 19.144C13.3776 19.1547 13.1503 19.1643 12.9229 19.1727L12.7371 19.1785C12.2649 19.1919 11.7179 19.1986 10.6404 19.2005L9.92584 19.2015H8.67205C7.97308 19.2039 7.27412 19.1966 6.57536 19.1795L6.38954 19.1737C6.16216 19.1651 5.93484 19.1552 5.70757 19.144C4.68844 19.0961 3.99306 18.9352 3.38196 18.6986C2.74278 18.4586 2.16381 18.0816 1.68565 17.5942C1.19816 17.1156 0.820946 16.5364 0.580317 15.897C0.343733 15.2868 0.182818 14.5915 0.134927 13.5714C0.124255 13.3441 0.114677 13.1168 0.106192 12.8894L0.101403 12.7036C0.0837519 12.0051 0.0757692 11.3065 0.077457 10.6079V8.63856C0.0747837 7.93992 0.0818085 7.24127 0.0985293 6.54283L0.105234 6.35701C0.112897 6.1415 0.122475 5.92982 0.133969 5.67504C0.18186 4.65495 0.342775 3.96052 0.579359 3.34943C0.819883 2.70951 1.19785 2.13014 1.68661 1.65216C2.16465 1.16508 2.74323 0.788184 3.38196 0.547782C3.99306 0.311198 4.68748 0.150283 5.70757 0.102392C5.96235 0.0908976 6.17499 0.0813193 6.38954 0.0736567L6.57536 0.0679097C7.2738 0.0508917 7.97245 0.0435477 8.67109 0.0458796L10.6404 0.0449219ZM9.65574 4.83406C8.38558 4.83406 7.16744 5.33863 6.2693 6.23677C5.37117 7.13491 4.8666 8.35304 4.8666 9.6232C4.8666 10.8934 5.37117 12.1115 6.2693 13.0096C7.16744 13.9078 8.38558 14.4123 9.65574 14.4123C10.9259 14.4123 12.144 13.9078 13.0422 13.0096C13.9403 12.1115 14.4449 10.8934 14.4449 9.6232C14.4449 8.35304 13.9403 7.13491 13.0422 6.23677C12.144 5.33863 10.9259 4.83406 9.65574 4.83406ZM9.65574 6.74972C10.0331 6.74966 10.4068 6.82392 10.7554 6.96827C11.1041 7.11261 11.4209 7.32422 11.6877 7.591C11.9546 7.85779 12.1663 8.17452 12.3108 8.52313C12.4552 8.87173 12.5296 9.24537 12.5297 9.62272C12.5298 10.0001 12.4555 10.3737 12.3112 10.7224C12.1668 11.071 11.9552 11.3879 11.6884 11.6547C11.4216 11.9216 11.1049 12.1333 10.7563 12.2778C10.4077 12.4222 10.034 12.4966 9.6567 12.4967C8.8946 12.4967 8.16372 12.1939 7.62483 11.6551C7.08595 11.1162 6.78321 10.3853 6.78321 9.6232C6.78321 8.86111 7.08595 8.13023 7.62483 7.59134C8.16372 7.05246 8.8946 6.74972 9.6567 6.74972M14.6853 3.39732C14.3678 3.39732 14.0632 3.52346 13.8387 3.748C13.6141 3.97253 13.488 4.27707 13.488 4.59461C13.488 4.91215 13.6141 5.21668 13.8387 5.44121C14.0632 5.66575 14.3678 5.79189 14.6853 5.79189C15.0028 5.79189 15.3074 5.66575 15.5319 5.44121C15.7564 5.21668 15.8826 4.91215 15.8826 4.59461C15.8826 4.27707 15.7564 3.97253 15.5319 3.748C15.3074 3.52346 15.0028 3.39732 14.6853 3.39732Z" fill="white"/>
</svg>
