<svg width="20" height="20" viewBox="0 0 20 20" fill="none" xmlns="http://www.w3.org/2000/svg">
<path d="M17.1655 0.0449219C17.73 0.0449219 18.2714 0.269175 18.6706 0.668347C19.0698 1.06752 19.294 1.60891 19.294 2.17343V17.073C19.294 17.6375 19.0698 18.1789 18.6706 18.5781C18.2714 18.9772 17.73 19.2015 17.1655 19.2015H2.26596C1.70144 19.2015 1.16005 18.9772 0.760876 18.5781C0.361704 18.1789 0.137451 17.6375 0.137451 17.073V2.17343C0.137451 1.60891 0.361704 1.06752 0.760876 0.668347C1.16005 0.269175 1.70144 0.0449219 2.26596 0.0449219H17.1655ZM16.6334 16.5408V10.9003C16.6334 9.98015 16.2678 9.09767 15.6172 8.44702C14.9665 7.79637 14.0841 7.43084 13.1639 7.43084C12.2593 7.43084 11.2057 7.98425 10.6948 8.81437V7.63305H7.72558V16.5408H10.6948V11.2941C10.6948 10.4746 11.3547 9.80413 12.1742 9.80413C12.5693 9.80413 12.9483 9.9611 13.2277 10.2405C13.5071 10.5199 13.6641 10.8989 13.6641 11.2941V16.5408H16.6334ZM4.26675 5.96217C4.74095 5.96217 5.19572 5.7738 5.53102 5.43849C5.86633 5.10319 6.0547 4.64842 6.0547 4.17423C6.0547 3.18447 5.25651 2.37564 4.26675 2.37564C3.78974 2.37564 3.33226 2.56513 2.99496 2.90243C2.65766 3.23973 2.46817 3.69721 2.46817 4.17423C2.46817 5.16398 3.277 5.96217 4.26675 5.96217ZM5.74607 16.5408V7.63305H2.79808V16.5408H5.74607Z" fill="white"/>
</svg>
